<svg width="17" height="17" viewBox="0 0 17 17" fill="none" xmlns="http://www.w3.org/2000/svg">
<path d="M3.26511 10.5185C3.45083 10.3327 3.67134 10.1853 3.91402 10.0848C4.15671 9.98423 4.41682 9.93248 4.67951 9.93248C4.9422 9.93248 5.20231 9.98423 5.445 10.0848C5.68768 10.1853 5.90819 10.3327 6.09391 10.5185L6.40271 10.8265C8.07849 9.42066 9.62812 7.87103 11.0339 6.19525L10.7251 5.88645C10.3502 5.51139 10.1395 5.00278 10.1395 4.47245C10.1395 3.94212 10.3502 3.43351 10.7251 3.05845L12.4235 1.36165C12.8041 0.997314 13.3106 0.793945 13.8375 0.793945C14.3644 0.793945 14.8709 0.997314 15.2515 1.36165L16.1827 2.29285C16.6367 2.7499 16.9196 3.34925 16.9838 3.99024C17.0481 4.63123 16.8898 5.2748 16.5355 5.81285C13.7671 9.98381 10.1928 13.5592 6.02271 16.3289C5.48247 16.6769 4.84015 16.8313 4.20076 16.7669C3.56137 16.7025 2.96274 16.4232 2.50271 15.9745L1.57151 15.0433C1.19657 14.6682 0.985939 14.1596 0.985939 13.6293C0.985939 13.0989 1.19657 12.5903 1.57151 12.2153L3.26511 10.5185Z" fill="white"/>
</svg>
