<!DOCTYPE svg PUBLIC "-//W3C//DTD SVG 1.1//EN" "http://www.w3.org/Graphics/SVG/1.1/DTD/svg11.dtd">
<!-- Uploaded to: SVG Repo, www.svgrepo.com, Transformed by: SVG Repo Mixer Tools -->
<svg fill="#ffffff" version="1.1" id="Capa_1" xmlns="http://www.w3.org/2000/svg" xmlns:xlink="http://www.w3.org/1999/xlink" width="800px" height="800px" viewBox="0 0 45.999 46" xml:space="preserve" stroke="#ffffff">
<g id="SVGRepo_bgCarrier" stroke-width="0"/>
<g id="SVGRepo_tracerCarrier" stroke-linecap="round" stroke-linejoin="round"/>
<g id="SVGRepo_iconCarrier"> <g> <path d="M45.398,31.222L23.467,9.755c-0.9-0.881-2.14-1.35-3.399-1.321c-1.083,0.037-2.111,0.478-2.917,1.194 c-0.299-1.683-1.092-3.294-2.39-4.592c-1.633-1.633-3.805-2.533-6.113-2.533c-2.31,0-4.481,0.9-6.114,2.533 C0.899,6.67,0,8.841,0,11.152c-0.001,2.31,0.898,4.48,2.532,6.114c0.992,0.992,2.185,1.709,3.483,2.123 C6.012,19.441,6,19.493,6,19.546v8.958c0,0.566,0.226,1.076,0.592,1.45c0.306,0.312,0.306,0.812,0,1.126 C6.226,31.455,6,31.965,6,32.532v8.958c0,1.154,0.936,2.006,2.09,2.006h8.958c1.154,0,1.952-0.852,1.952-2.006v-8.958 c0-0.566-0.226-1.077-0.592-1.451c-0.307-0.313-0.306-0.813,0-1.126C18.774,29.581,19,29.071,19,28.504v-6.012l19.932,19.924 c0.392,0.392,0.938,0.588,1.451,0.588c0.512,0,1.038-0.194,1.43-0.583c0.781-0.779,0.793-2.046,0.013-2.828l-5.937-5.959 l3.135-3.055l3.578,3.5c0.789,0.771,2.057,0.76,2.828-0.03S46.188,31.994,45.398,31.222z M30.73,22.461l-3.03,2.955l-3.956-3.968 l2.982-2.906L30.73,22.461z M17.913,14.747l1.962-1.984c0.116-0.13,0.282-0.208,0.454-0.213c0.176-0.011,0.344,0.06,0.468,0.181 l3.785,3.712l-2.955,2.88l-3.689-3.702C17.699,15.382,17.688,14.999,17.913,14.747z M3,11.152c0-0.991,0.276-1.933,0.754-2.772 l2.771,2.772l-2.772,2.771C3.276,13.084,2.999,12.143,3,11.152z M8.646,13.272l2.773,2.772c-0.84,0.478-1.781,0.754-2.772,0.754 c-0.992,0-1.934-0.276-2.773-0.754L8.646,13.272z M13.539,8.38c0.972,1.719,0.972,3.824,0,5.542l-2.771-2.771L13.539,8.38z M11.419,6.257L8.647,9.031L5.874,6.259c0.84-0.477,1.781-0.754,2.773-0.754S10.58,5.781,11.419,6.257z M33.773,31.509 l-3.955-3.969l3.057-2.98l4.005,3.92L33.773,31.509z"/> </g> </g>
</svg>