<svg xmlns="http://www.w3.org/2000/svg" xmlns:xlink="http://www.w3.org/1999/xlink" viewBox="0 0 26 30"><path d="M 25.458 22.428 L 25.458 5.38 C 25.459 4.773 25.187 4.196 24.716 3.803 C 24.245 3.411 23.623 3.243 23.014 3.343 C 20.39 3.703 17.325 2.973 14.698 1.146 C 13.603 0.367 12.123 0.369 11.031 1.153 C 8.417 2.985 5.37 3.746 2.752 3.38 C 2.143 3.269 1.515 3.43 1.039 3.82 C 0.563 4.21 0.287 4.787 0.287 5.397 C 0.271 8.917 0.271 18.826 0.271 22.428 C 0.271 23.643 0.993 24.746 2.117 25.249 L 11.562 29.475 C 12.39 29.845 13.34 29.845 14.167 29.475 L 23.612 25.249 C 24.736 24.746 25.458 23.643 25.458 22.428 Z M 23.358 5.38 L 23.359 5.381 L 23.359 22.428 C 23.359 22.833 23.119 23.2 22.744 23.369 L 13.299 27.594 C 13.023 27.718 12.706 27.718 12.43 27.594 L 2.985 23.369 C 2.61 23.201 2.37 22.833 2.37 22.428 C 2.37 18.832 2.37 8.95 2.386 5.415 L 2.389 5.416 C 5.516 5.866 9.148 5.009 12.252 2.834 L 12.258 2.83 C 12.617 2.566 13.109 2.563 13.471 2.823 L 13.477 2.827 C 16.587 4.991 20.22 5.816 23.322 5.386 Z M 5.471 15.772 L 9.795 19.965 C 10.332 20.485 11.202 20.485 11.738 19.965 L 19.837 12.112 C 20.358 11.589 20.35 10.758 19.82 10.244 C 19.29 9.73 18.433 9.723 17.894 10.228 L 10.767 17.138 L 7.414 13.888 C 6.875 13.383 6.018 13.39 5.488 13.904 C 4.958 14.418 4.95 15.249 5.471 15.772 Z M 23.359 5.381" fill="#000"></path></svg>