<?xml version="1.0" encoding="iso-8859-1"?>
<!-- Uploaded to: SVG Repo, www.svgrepo.com, Generator: SVG Repo Mixer Tools -->
<svg fill="#ffff" height="800px" width="800px" version="1.1" id="Layer_1" xmlns="http://www.w3.org/2000/svg" xmlns:xlink="http://www.w3.org/1999/xlink" 
	 viewBox="0 0 512.001 512.001" xml:space="preserve">
<g>
	<g>
		<path d="M469.269,288.001h-0.299C495.488,260.865,512,223.105,512,181.334c0-82.346-64.021-149.333-142.72-149.333H142.699
			C64.021,32.001,0,98.988,0,181.334c0,41.771,16.512,79.531,43.029,106.667H42.73C19.157,288.001,0,307.158,0,330.731v63.872
			c0,23.573,19.157,42.731,42.731,42.731h25.195c8.831,24.767,32.298,42.666,60.074,42.666s51.243-17.899,60.075-42.667h135.851
			c8.831,24.768,32.298,42.667,60.074,42.667s51.243-17.899,60.075-42.667h25.195c23.552,0,42.731-19.157,42.731-42.731V330.73
			C512,307.158,492.821,288.001,469.269,288.001z M469.269,394.668h-24.917c-0.256-0.747-0.661-1.408-0.939-2.133
			c-0.469-1.152-0.981-2.219-1.493-3.328c-1.131-2.432-2.389-4.757-3.797-6.997c-0.64-1.024-1.237-2.048-1.941-3.029
			c-1.813-2.56-3.797-4.949-5.973-7.211c-0.427-0.448-0.768-0.96-1.216-1.408c-2.645-2.603-5.547-4.971-8.597-7.104
			c-0.853-0.597-1.792-1.067-2.667-1.621c-2.325-1.451-4.715-2.773-7.232-3.925c-1.173-0.533-2.347-1.003-3.563-1.472
			c-2.496-0.981-5.056-1.749-7.68-2.389c-1.173-0.299-2.304-0.64-3.499-0.853c-3.819-0.728-7.723-1.197-11.755-1.197
			c-4.032,0-7.936,0.469-11.755,1.195c-1.195,0.213-2.325,0.555-3.499,0.853c-2.624,0.64-5.184,1.408-7.701,2.389
			c-1.195,0.469-2.389,0.939-3.563,1.472c-2.496,1.152-4.885,2.475-7.211,3.925c-0.896,0.555-1.813,1.045-2.667,1.621
			c-3.072,2.133-5.952,4.501-8.597,7.104c-0.448,0.448-0.811,0.96-1.237,1.408c-2.155,2.261-4.139,4.651-5.952,7.211
			c-0.704,0.981-1.301,2.005-1.941,3.008c-1.408,2.261-2.688,4.587-3.819,7.019c-0.512,1.109-1.003,2.176-1.472,3.328
			c-0.277,0.725-0.683,1.387-0.939,2.133H188.352c-0.256-0.747-0.661-1.408-0.939-2.133c-0.469-1.152-0.981-2.219-1.493-3.328
			c-1.131-2.432-2.389-4.757-3.797-6.997c-0.64-1.024-1.237-2.048-1.941-3.029c-1.813-2.56-3.797-4.949-5.973-7.211
			c-0.427-0.448-0.768-0.96-1.216-1.408c-2.645-2.603-5.547-4.971-8.597-7.104c-0.853-0.597-1.792-1.067-2.667-1.621
			c-2.325-1.451-4.715-2.773-7.232-3.925c-1.173-0.533-2.347-1.003-3.563-1.472c-2.496-0.981-5.056-1.749-7.68-2.389
			c-1.173-0.299-2.304-0.64-3.499-0.853c-3.819-0.727-7.723-1.196-11.755-1.196s-7.936,0.469-11.755,1.195
			c-1.195,0.213-2.325,0.555-3.477,0.832c-2.645,0.661-5.205,1.429-7.723,2.411c-1.195,0.469-2.368,0.939-3.541,1.472
			c-2.517,1.152-4.907,2.475-7.232,3.925c-0.896,0.555-1.813,1.045-2.667,1.621c-3.051,2.133-5.952,4.48-8.576,7.104
			c-0.491,0.469-0.875,1.003-1.323,1.493c-2.112,2.219-4.075,4.565-5.845,7.083c-0.725,1.024-1.365,2.091-2.027,3.157
			c-1.365,2.176-2.603,4.437-3.691,6.805c-0.555,1.152-1.109,2.304-1.579,3.52c-0.277,0.683-0.64,1.323-0.896,2.027l-25.003-0.043
			V330.73l0.064-0.064l426.603,0.064L469.269,394.668z"/>
	</g>
</g>
</svg>